<svg width="100" height="20" viewBox="0 0 100 20" fill="none" xmlns="http://www.w3.org/2000/svg">
<g clip-path="url(#clip0_138_321)">
<path d="M0 3C0 1.34315 1.34315 0 3 0H97C98.6569 0 100 1.34315 100 3V17C100 18.6569 98.6569 20 97 20H3C1.34314 20 0 18.6569 0 17V3Z" fill="url(#paint0_linear_138_321)"/>
<path d="M4 4.76572V15.2343C4 16.2224 4.77759 17 5.76572 17H16.2343C16.7179 17 17.18 16.7686 17.4747 16.4747C17.7901 16.1592 18 15.7596 18 15.2343V4.76572C18 3.77759 17.2224 3 16.2343 3H5.76572C5.24038 3 4.84082 3.21054 4.52534 3.52534C4.23072 3.81997 4 4.28208 4 4.76572ZM5.89218 6.15274C5.89218 5.48008 6.43905 4.89151 7.11171 4.89151C7.80522 4.89151 8.37294 5.48008 8.37294 6.15274C8.37294 6.84625 7.80522 7.39312 7.11171 7.39312C6.43905 7.39312 5.89218 6.84625 5.89218 6.15274ZM9.27632 14.7923V8.38125C9.27632 8.23394 9.42363 8.10815 9.52856 8.10815H11.3151C11.5674 8.10815 11.5674 8.40278 11.5674 8.59179C12.0719 8.0873 12.7237 7.96084 13.3963 7.96084C15.0363 7.96084 16.087 8.73843 16.087 10.4625V14.793C16.087 14.9403 15.9605 15.0661 15.8347 15.0661H13.9849C13.8376 15.0661 13.7327 14.9188 13.7327 14.793V10.8829C13.7327 10.2311 13.5437 9.87388 12.8078 9.87388C11.8829 9.87388 11.6515 10.4833 11.6515 11.3033V14.793C11.6515 14.9403 11.5042 15.0661 11.3568 15.0661H9.52789C9.42296 15.0661 9.27565 14.9188 9.27565 14.793L9.27632 14.7923ZM5.93389 14.7923V8.38125C5.93389 8.23394 6.0812 8.10815 6.18613 8.10815H8.01509C8.18325 8.10815 8.28819 8.21309 8.28819 8.38125V14.7923C8.28819 14.9397 8.16173 15.0654 8.01509 15.0654H6.18613C6.05967 15.0654 5.93389 14.9181 5.93389 14.7923Z" fill="#959DA5"/>
<path d="M23.089 16.26L26.697 6.69H27.511L23.903 16.26H23.089ZM32.0717 14.5V9.891H29.5857V9.154H32.9737V14.5H32.0717ZM32.4237 8.032C32.2184 8.032 32.046 7.96967 31.9067 7.845C31.7674 7.713 31.6977 7.54067 31.6977 7.328C31.6977 7.11533 31.7674 6.94667 31.9067 6.822C32.046 6.69 32.2184 6.624 32.4237 6.624C32.629 6.624 32.8014 6.69 32.9407 6.822C33.08 6.94667 33.1497 7.11533 33.1497 7.328C33.1497 7.54067 33.08 7.713 32.9407 7.845C32.8014 7.96967 32.629 8.032 32.4237 8.032ZM36.2144 14.5V9.154H36.9624L37.0394 10.067H37.0834C37.3621 9.76633 37.6627 9.517 37.9854 9.319C38.3081 9.121 38.6784 9.022 39.0964 9.022C39.7271 9.022 40.1927 9.20533 40.4934 9.572C40.7941 9.93867 40.9444 10.474 40.9444 11.178V14.5H40.0424V11.299C40.0424 10.793 39.9471 10.419 39.7564 10.177C39.5657 9.92767 39.2504 9.803 38.8104 9.803C38.4951 9.803 38.2127 9.88367 37.9634 10.045C37.7141 10.2063 37.4317 10.4483 37.1164 10.771V14.5H36.2144ZM42.8761 16.26L46.4841 6.69H47.2981L43.6901 16.26H42.8761ZM51.8588 14.5V9.891H49.3728V9.154H52.7608V14.5H51.8588ZM52.2108 8.032C52.0055 8.032 51.8331 7.96967 51.6938 7.845C51.5545 7.713 51.4848 7.54067 51.4848 7.328C51.4848 7.11533 51.5545 6.94667 51.6938 6.822C51.8331 6.69 52.0055 6.624 52.2108 6.624C52.4161 6.624 52.5885 6.69 52.7278 6.822C52.8671 6.94667 52.9368 7.11533 52.9368 7.328C52.9368 7.54067 52.8671 7.713 52.7278 7.845C52.5885 7.96967 52.4161 8.032 52.2108 8.032ZM59.4555 14.632C58.8908 14.632 58.4545 14.4707 58.1465 14.148C57.8458 13.818 57.6955 13.3377 57.6955 12.707V7.405H55.7925V6.668H58.5975V12.773C58.5975 13.1617 58.6928 13.444 58.8835 13.62C59.0815 13.796 59.3382 13.884 59.6535 13.884C59.9688 13.884 60.3025 13.8033 60.6545 13.642L60.8855 14.313C60.6362 14.4157 60.4088 14.4927 60.2035 14.544C59.9982 14.6027 59.7488 14.632 59.4555 14.632ZM62.7402 14.5V6.668H63.6422V11.97H63.6862L66.5682 9.154H67.6022L65.4682 11.255L67.8882 14.5H66.8762L64.9072 11.805L63.6422 13.048V14.5H62.7402ZM69.1929 14.5V6.668H70.0949V8.802L70.0399 10.067H70.0729C70.3516 9.76633 70.6486 9.517 70.9639 9.319C71.2866 9.121 71.6569 9.022 72.0749 9.022C72.7056 9.022 73.1713 9.20533 73.4719 9.572C73.7726 9.93867 73.9229 10.474 73.9229 11.178V14.5H73.0209V11.299C73.0209 10.793 72.9256 10.419 72.7349 10.177C72.5443 9.92767 72.2289 9.803 71.7889 9.803C71.4736 9.803 71.1913 9.88367 70.9419 10.045C70.6926 10.2063 70.4103 10.4483 70.0949 10.771V14.5H69.1929ZM77.4716 14.632C77.1416 14.632 76.8373 14.5733 76.5586 14.456C76.2873 14.3313 76.0673 14.1553 75.8986 13.928C75.7373 13.7007 75.6566 13.4293 75.6566 13.114C75.6566 12.7107 75.785 12.377 76.0416 12.113C76.3056 11.8417 76.7236 11.6253 77.2956 11.464C77.8676 11.3027 78.612 11.1853 79.5286 11.112C79.5213 10.87 79.47 10.65 79.3746 10.452C79.2866 10.2467 79.14 10.0817 78.9346 9.957C78.7293 9.83233 78.4543 9.77 78.1096 9.77C77.765 9.77 77.4276 9.83967 77.0976 9.979C76.775 10.111 76.489 10.254 76.2396 10.408L75.8876 9.792C76.159 9.616 76.5036 9.44367 76.9216 9.275C77.347 9.10633 77.7943 9.022 78.2636 9.022C78.997 9.022 79.5396 9.22367 79.8916 9.627C80.251 10.023 80.4306 10.5547 80.4306 11.222V14.5H79.6936L79.6166 13.774H79.5836C79.2903 14.0013 78.9603 14.203 78.5936 14.379C78.227 14.5477 77.853 14.632 77.4716 14.632ZM77.7136 13.906C78.0143 13.906 78.315 13.8363 78.6156 13.697C78.9236 13.5577 79.228 13.3633 79.5286 13.114V11.706C78.766 11.7647 78.1646 11.8563 77.7246 11.981C77.292 12.0983 76.984 12.2487 76.8006 12.432C76.6246 12.608 76.5366 12.8133 76.5366 13.048C76.5366 13.3487 76.654 13.5687 76.8886 13.708C77.1306 13.84 77.4056 13.906 77.7136 13.906ZM82.3843 14.5V9.154H83.1323L83.2093 10.067H83.2533C83.532 9.76633 83.8327 9.517 84.1553 9.319C84.478 9.121 84.8483 9.022 85.2663 9.022C85.897 9.022 86.3627 9.20533 86.6633 9.572C86.964 9.93867 87.1143 10.474 87.1143 11.178V14.5H86.2123V11.299C86.2123 10.793 86.117 10.419 85.9263 10.177C85.7357 9.92767 85.4203 9.803 84.9803 9.803C84.665 9.803 84.3827 9.88367 84.1333 10.045C83.884 10.2063 83.6017 10.4483 83.2863 10.771V14.5H82.3843ZM91.433 14.5V9.891H88.947V9.154H92.335V14.5H91.433ZM91.785 8.032C91.5797 8.032 91.4074 7.96967 91.268 7.845C91.1287 7.713 91.059 7.54067 91.059 7.328C91.059 7.11533 91.1287 6.94667 91.268 6.822C91.4074 6.69 91.5797 6.624 91.785 6.624C91.9904 6.624 92.1627 6.69 92.302 6.822C92.4414 6.94667 92.511 7.11533 92.511 7.328C92.511 7.54067 92.4414 7.713 92.302 7.845C92.1627 7.96967 91.9904 8.032 91.785 8.032Z" fill="#010101" fill-opacity="0.3"/>
<path d="M23.089 15.26L26.697 5.69H27.511L23.903 15.26H23.089ZM32.0717 13.5V8.891H29.5857V8.154H32.9737V13.5H32.0717ZM32.4237 7.032C32.2184 7.032 32.046 6.96967 31.9067 6.845C31.7674 6.713 31.6977 6.54067 31.6977 6.328C31.6977 6.11533 31.7674 5.94667 31.9067 5.822C32.046 5.69 32.2184 5.624 32.4237 5.624C32.629 5.624 32.8014 5.69 32.9407 5.822C33.08 5.94667 33.1497 6.11533 33.1497 6.328C33.1497 6.54067 33.08 6.713 32.9407 6.845C32.8014 6.96967 32.629 7.032 32.4237 7.032ZM36.2144 13.5V8.154H36.9624L37.0394 9.067H37.0834C37.3621 8.76633 37.6627 8.517 37.9854 8.319C38.3081 8.121 38.6784 8.022 39.0964 8.022C39.7271 8.022 40.1927 8.20533 40.4934 8.572C40.7941 8.93867 40.9444 9.474 40.9444 10.178V13.5H40.0424V10.299C40.0424 9.793 39.9471 9.419 39.7564 9.177C39.5657 8.92767 39.2504 8.803 38.8104 8.803C38.4951 8.803 38.2127 8.88367 37.9634 9.045C37.7141 9.20633 37.4317 9.44833 37.1164 9.771V13.5H36.2144ZM42.8761 15.26L46.4841 5.69H47.2981L43.6901 15.26H42.8761ZM51.8588 13.5V8.891H49.3728V8.154H52.7608V13.5H51.8588ZM52.2108 7.032C52.0055 7.032 51.8331 6.96967 51.6938 6.845C51.5545 6.713 51.4848 6.54067 51.4848 6.328C51.4848 6.11533 51.5545 5.94667 51.6938 5.822C51.8331 5.69 52.0055 5.624 52.2108 5.624C52.4161 5.624 52.5885 5.69 52.7278 5.822C52.8671 5.94667 52.9368 6.11533 52.9368 6.328C52.9368 6.54067 52.8671 6.713 52.7278 6.845C52.5885 6.96967 52.4161 7.032 52.2108 7.032ZM59.4555 13.632C58.8908 13.632 58.4545 13.4707 58.1465 13.148C57.8458 12.818 57.6955 12.3377 57.6955 11.707V6.405H55.7925V5.668H58.5975V11.773C58.5975 12.1617 58.6928 12.444 58.8835 12.62C59.0815 12.796 59.3382 12.884 59.6535 12.884C59.9688 12.884 60.3025 12.8033 60.6545 12.642L60.8855 13.313C60.6362 13.4157 60.4088 13.4927 60.2035 13.544C59.9982 13.6027 59.7488 13.632 59.4555 13.632ZM62.7402 13.5V5.668H63.6422V10.97H63.6862L66.5682 8.154H67.6022L65.4682 10.255L67.8882 13.5H66.8762L64.9072 10.805L63.6422 12.048V13.5H62.7402ZM69.1929 13.5V5.668H70.0949V7.802L70.0399 9.067H70.0729C70.3516 8.76633 70.6486 8.517 70.9639 8.319C71.2866 8.121 71.6569 8.022 72.0749 8.022C72.7056 8.022 73.1713 8.20533 73.4719 8.572C73.7726 8.93867 73.9229 9.474 73.9229 10.178V13.5H73.0209V10.299C73.0209 9.793 72.9256 9.419 72.7349 9.177C72.5443 8.92767 72.2289 8.803 71.7889 8.803C71.4736 8.803 71.1913 8.88367 70.9419 9.045C70.6926 9.20633 70.4103 9.44833 70.0949 9.771V13.5H69.1929ZM77.4716 13.632C77.1416 13.632 76.8373 13.5733 76.5586 13.456C76.2873 13.3313 76.0673 13.1553 75.8986 12.928C75.7373 12.7007 75.6566 12.4293 75.6566 12.114C75.6566 11.7107 75.785 11.377 76.0416 11.113C76.3056 10.8417 76.7236 10.6253 77.2956 10.464C77.8676 10.3027 78.612 10.1853 79.5286 10.112C79.5213 9.87 79.47 9.65 79.3746 9.452C79.2866 9.24667 79.14 9.08167 78.9346 8.957C78.7293 8.83233 78.4543 8.77 78.1096 8.77C77.765 8.77 77.4276 8.83967 77.0976 8.979C76.775 9.111 76.489 9.254 76.2396 9.408L75.8876 8.792C76.159 8.616 76.5036 8.44367 76.9216 8.275C77.347 8.10633 77.7943 8.022 78.2636 8.022C78.997 8.022 79.5396 8.22367 79.8916 8.627C80.251 9.023 80.4306 9.55467 80.4306 10.222V13.5H79.6936L79.6166 12.774H79.5836C79.2903 13.0013 78.9603 13.203 78.5936 13.379C78.227 13.5477 77.853 13.632 77.4716 13.632ZM77.7136 12.906C78.0143 12.906 78.315 12.8363 78.6156 12.697C78.9236 12.5577 79.228 12.3633 79.5286 12.114V10.706C78.766 10.7647 78.1646 10.8563 77.7246 10.981C77.292 11.0983 76.984 11.2487 76.8006 11.432C76.6246 11.608 76.5366 11.8133 76.5366 12.048C76.5366 12.3487 76.654 12.5687 76.8886 12.708C77.1306 12.84 77.4056 12.906 77.7136 12.906ZM82.3843 13.5V8.154H83.1323L83.2093 9.067H83.2533C83.532 8.76633 83.8327 8.517 84.1553 8.319C84.478 8.121 84.8483 8.022 85.2663 8.022C85.897 8.022 86.3627 8.20533 86.6633 8.572C86.964 8.93867 87.1143 9.474 87.1143 10.178V13.5H86.2123V10.299C86.2123 9.793 86.117 9.419 85.9263 9.177C85.7357 8.92767 85.4203 8.803 84.9803 8.803C84.665 8.803 84.3827 8.88367 84.1333 9.045C83.884 9.20633 83.6017 9.44833 83.2863 9.771V13.5H82.3843ZM91.433 13.5V8.891H88.947V8.154H92.335V13.5H91.433ZM91.785 7.032C91.5797 7.032 91.4074 6.96967 91.268 6.845C91.1287 6.713 91.059 6.54067 91.059 6.328C91.059 6.11533 91.1287 5.94667 91.268 5.822C91.4074 5.69 91.5797 5.624 91.785 5.624C91.9904 5.624 92.1627 5.69 92.302 5.822C92.4414 5.94667 92.511 6.11533 92.511 6.328C92.511 6.54067 92.4414 6.713 92.302 6.845C92.1627 6.96967 91.9904 7.032 91.785 7.032Z" fill="white"/>
</g>
<defs>
<linearGradient id="paint0_linear_138_321" x1="5000" y1="0" x2="5000" y2="2000" gradientUnits="userSpaceOnUse">
<stop stop-color="#444D56"/>
<stop offset="1" stop-color="#24292E"/>
</linearGradient>
<clipPath id="clip0_138_321">
<rect width="100" height="20" fill="white"/>
</clipPath>
</defs>
</svg>
