<svg width="80" height="20" viewBox="0 0 80 20" fill="none" xmlns="http://www.w3.org/2000/svg">
<g clip-path="url(#clip0_138_615)">
<path d="M0 3C0 1.34315 1.34315 0 3 0H77C78.6569 0 80 1.34315 80 3V17C80 18.6569 78.6569 20 77 20H3C1.34315 20 0 18.6569 0 17V3Z" fill="url(#paint0_linear_138_615)"/>
<path d="M10.775 5.275L12.025 4.025C12.35 3.69997 12.7359 3.44215 13.1605 3.26625C13.5852 3.09035 14.0403 2.99982 14.5 2.99982C14.9596 2.99982 15.4148 3.09035 15.8395 3.26625C16.2641 3.44215 16.65 3.69997 16.975 4.025C17.3 4.35002 17.5578 4.73587 17.7337 5.16054C17.9096 5.5852 18.0002 6.04035 18.0002 6.5C18.0002 6.95965 17.9096 7.41479 17.7337 7.83946C17.5578 8.26412 17.3 8.64997 16.975 8.975L14.475 11.475C14.15 11.8 13.7641 12.0579 13.3395 12.2338C12.9148 12.4097 12.4597 12.5002 12 12.5002C11.5403 12.5002 11.0852 12.4097 10.6605 12.2338C10.2359 12.0579 9.85001 11.8 9.525 11.475C9.39259 11.3327 9.32048 11.1447 9.32384 10.9504C9.3272 10.756 9.40575 10.5706 9.543 10.433C9.6806 10.2958 9.86605 10.2172 10.0604 10.2138C10.2547 10.2105 10.4427 10.2826 10.585 10.415C10.7706 10.6012 10.9911 10.7489 11.234 10.8497C11.4768 10.9505 11.7371 11.0024 12 11.0024C12.2629 11.0024 12.5232 10.9505 12.766 10.8497C13.0088 10.7489 13.2294 10.6012 13.415 10.415L15.915 7.915C16.272 7.53605 16.4674 7.03292 16.4596 6.51234C16.4519 5.99176 16.2416 5.49467 15.8735 5.12652C15.5053 4.75837 15.0082 4.54812 14.4877 4.54037C13.9671 4.53262 13.4639 4.72797 13.085 5.085L11.835 6.335C11.6927 6.4674 11.5047 6.53951 11.3104 6.53615C11.116 6.53279 10.9306 6.45424 10.793 6.317C10.6558 6.17939 10.5772 5.99394 10.5738 5.79963C10.5705 5.60531 10.6426 5.41726 10.775 5.275ZM6.085 14.915C6.27061 15.1012 6.49114 15.2489 6.73396 15.3497C6.97677 15.4505 7.23709 15.5024 7.5 15.5024C7.7629 15.5024 8.02322 15.4505 8.26604 15.3497C8.50885 15.2489 8.72938 15.1012 8.915 14.915L10.165 13.665C10.3073 13.5326 10.4953 13.4605 10.6896 13.4638C10.8839 13.4672 11.0694 13.5458 11.207 13.683C11.3442 13.8206 11.4228 14.006 11.4262 14.2004C11.4295 14.3947 11.3574 14.5827 11.225 14.725L9.975 15.975C9.64997 16.3 9.26412 16.5578 8.83946 16.7337C8.41479 16.9096 7.95965 17.0002 7.5 17.0002C6.57169 17.0002 5.68141 16.6314 5.025 15.975C4.36858 15.3186 3.99982 14.4283 3.99982 13.5C3.99982 12.5717 4.36858 11.6814 5.025 11.025L7.525 8.525C7.85001 8.19995 8.23586 7.94211 8.66052 7.7662C9.08518 7.59029 9.54034 7.49974 10 7.49974C10.4597 7.49974 10.9148 7.59029 11.3395 7.7662C11.7641 7.94211 12.15 8.19995 12.475 8.525C12.6074 8.66726 12.6795 8.85531 12.6762 9.04963C12.6728 9.24394 12.5942 9.42939 12.457 9.567C12.3194 9.70424 12.1339 9.78279 11.9396 9.78615C11.7453 9.78951 11.5573 9.7174 11.415 9.585C11.2294 9.3988 11.0088 9.25107 10.766 9.15028C10.5232 9.04948 10.2629 8.99759 10 8.99759C9.73709 8.99759 9.47677 9.04948 9.23396 9.15028C8.99114 9.25107 8.77061 9.3988 8.585 9.585L6.085 12.085C5.8988 12.2706 5.75107 12.4911 5.65028 12.734C5.54948 12.9768 5.49759 13.2371 5.49759 13.5C5.49759 13.7629 5.54948 14.0232 5.65028 14.266C5.75107 14.5088 5.8988 14.7294 6.085 14.915Z" fill="#959DA5"/>
<path d="M26.477 14.632C25.9123 14.632 25.476 14.4707 25.168 14.148C24.8673 13.818 24.717 13.3377 24.717 12.707V7.405H22.814V6.668H25.619V12.773C25.619 13.1617 25.7143 13.444 25.905 13.62C26.103 13.796 26.3597 13.884 26.675 13.884C26.9903 13.884 27.324 13.8033 27.676 13.642L27.907 14.313C27.6577 14.4157 27.4303 14.4927 27.225 14.544C27.0197 14.6027 26.7703 14.632 26.477 14.632ZM32.0937 9.737C31.6537 9.737 31.2614 9.88 30.9167 10.166C30.572 10.4447 30.3594 10.848 30.2787 11.376H33.6887C33.652 10.826 33.4907 10.4153 33.2047 10.144C32.9187 9.87267 32.5484 9.737 32.0937 9.737ZM32.2257 14.632C31.6904 14.632 31.2027 14.522 30.7627 14.302C30.33 14.082 29.9854 13.763 29.7287 13.345C29.472 12.9197 29.3437 12.41 29.3437 11.816C29.3437 11.2367 29.472 10.738 29.7287 10.32C29.9854 9.902 30.319 9.583 30.7297 9.363C31.1477 9.13567 31.595 9.022 32.0717 9.022C32.8417 9.022 33.4394 9.253 33.8647 9.715C34.2974 10.1697 34.5137 10.7747 34.5137 11.53C34.5137 11.6327 34.51 11.7317 34.5027 11.827C34.4954 11.9223 34.4844 12.0067 34.4697 12.08H30.2567C30.3154 12.6813 30.5354 13.136 30.9167 13.444C31.3054 13.752 31.7784 13.906 32.3357 13.906C32.6584 13.906 32.948 13.862 33.2047 13.774C33.4687 13.6787 33.7217 13.554 33.9637 13.4L34.2937 13.994C34.0297 14.17 33.7254 14.3203 33.3807 14.445C33.0434 14.5697 32.6584 14.632 32.2257 14.632ZM38.6674 14.5V9.891H36.1814V9.154H39.5694V14.5H38.6674ZM39.0194 8.032C38.8141 8.032 38.6417 7.96967 38.5024 7.845C38.3631 7.713 38.2934 7.54067 38.2934 7.328C38.2934 7.11533 38.3631 6.94667 38.5024 6.822C38.6417 6.69 38.8141 6.624 39.0194 6.624C39.2247 6.624 39.3971 6.69 39.5364 6.822C39.6757 6.94667 39.7454 7.11533 39.7454 7.328C39.7454 7.54067 39.6757 7.713 39.5364 7.845C39.3971 7.96967 39.2247 8.032 39.0194 8.032ZM46.2641 14.632C45.6994 14.632 45.2631 14.4707 44.9551 14.148C44.6544 13.818 44.5041 13.3377 44.5041 12.707V7.405H42.6011V6.668H45.4061V12.773C45.4061 13.1617 45.5014 13.444 45.6921 13.62C45.8901 13.796 46.1468 13.884 46.4621 13.884C46.7774 13.884 47.1111 13.8033 47.4631 13.642L47.6941 14.313C47.4448 14.4157 47.2174 14.4927 47.0121 14.544C46.8068 14.6027 46.5574 14.632 46.2641 14.632ZM51.0888 14.632C50.7588 14.632 50.4545 14.5733 50.1758 14.456C49.9045 14.3313 49.6845 14.1553 49.5158 13.928C49.3545 13.7007 49.2738 13.4293 49.2738 13.114C49.2738 12.7107 49.4021 12.377 49.6588 12.113C49.9228 11.8417 50.3408 11.6253 50.9128 11.464C51.4848 11.3027 52.2291 11.1853 53.1458 11.112C53.1385 10.87 53.0871 10.65 52.9918 10.452C52.9038 10.2467 52.7571 10.0817 52.5518 9.957C52.3465 9.83233 52.0715 9.77 51.7268 9.77C51.3821 9.77 51.0448 9.83967 50.7148 9.979C50.3921 10.111 50.1061 10.254 49.8568 10.408L49.5048 9.792C49.7761 9.616 50.1208 9.44367 50.5388 9.275C50.9641 9.10633 51.4115 9.022 51.8808 9.022C52.6141 9.022 53.1568 9.22367 53.5088 9.627C53.8681 10.023 54.0478 10.5547 54.0478 11.222V14.5H53.3108L53.2338 13.774H53.2008C52.9075 14.0013 52.5775 14.203 52.2108 14.379C51.8441 14.5477 51.4701 14.632 51.0888 14.632ZM51.3308 13.906C51.6315 13.906 51.9321 13.8363 52.2328 13.697C52.5408 13.5577 52.8451 13.3633 53.1458 13.114V11.706C52.3831 11.7647 51.7818 11.8563 51.3418 11.981C50.9091 12.0983 50.6011 12.2487 50.4178 12.432C50.2418 12.608 50.1538 12.8133 50.1538 13.048C50.1538 13.3487 50.2711 13.5687 50.5058 13.708C50.7478 13.84 51.0228 13.906 51.3308 13.906ZM58.2785 14.632C58.0292 14.632 57.8165 14.5477 57.6405 14.379C57.4718 14.203 57.3875 13.9793 57.3875 13.708C57.3875 13.4293 57.4718 13.2057 57.6405 13.037C57.8165 12.861 58.0292 12.773 58.2785 12.773C58.5278 12.773 58.7368 12.861 58.9055 13.037C59.0815 13.2057 59.1695 13.4293 59.1695 13.708C59.1695 13.9793 59.0815 14.203 58.9055 14.379C58.7368 14.5477 58.5278 14.632 58.2785 14.632ZM62.5092 13.257L62.9382 12.63C63.2169 12.828 63.5249 13.004 63.8622 13.158C64.1996 13.3047 64.5736 13.378 64.9842 13.378C65.4169 13.378 65.7469 13.29 65.9742 13.114C66.2016 12.9307 66.3152 12.6997 66.3152 12.421C66.3152 12.1937 66.2309 12.0067 66.0622 11.86C65.8936 11.706 65.6772 11.5703 65.4132 11.453C65.1492 11.3357 64.8669 11.222 64.5662 11.112C64.2729 10.9947 63.9942 10.8663 63.7302 10.727C63.4662 10.5803 63.2499 10.4007 63.0812 10.188C62.9126 9.968 62.8282 9.70033 62.8282 9.385C62.8282 8.923 62.9896 8.54533 63.3122 8.252C63.6422 7.95133 64.0749 7.77533 64.6102 7.724V6.272H65.2702V7.713C65.6736 7.74233 66.0109 7.83767 66.2822 7.999C66.5536 8.153 66.7992 8.33633 67.0192 8.549L66.5352 9.077C66.2859 8.88633 66.0439 8.736 65.8092 8.626C65.5819 8.50867 65.2849 8.45 64.9182 8.45C64.5516 8.45 64.2582 8.53433 64.0382 8.703C63.8182 8.86433 63.7082 9.08433 63.7082 9.363C63.7082 9.561 63.7926 9.72967 63.9612 9.869C64.1299 10.001 64.3462 10.122 64.6102 10.232C64.8742 10.3347 65.1566 10.4447 65.4572 10.562C65.7579 10.672 66.0402 10.804 66.3042 10.958C66.5682 11.1047 66.7846 11.2917 66.9532 11.519C67.1219 11.739 67.2062 12.0177 67.2062 12.355C67.2062 12.8243 67.0266 13.2203 66.6672 13.543C66.3152 13.8583 65.8496 14.0453 65.2702 14.104V15.71H64.6102V14.115C64.2069 14.0783 63.8182 13.9793 63.4442 13.818C63.0776 13.6567 62.7659 13.4697 62.5092 13.257ZM69.1929 14.5V6.668H70.0949V8.802L70.0399 10.067H70.0729C70.3516 9.76633 70.6486 9.517 70.9639 9.319C71.2866 9.121 71.6569 9.022 72.0749 9.022C72.7056 9.022 73.1713 9.20533 73.4719 9.572C73.7726 9.93867 73.9229 10.474 73.9229 11.178V14.5H73.0209V11.299C73.0209 10.793 72.9256 10.419 72.7349 10.177C72.5443 9.92767 72.2289 9.803 71.7889 9.803C71.4736 9.803 71.1913 9.88367 70.9419 10.045C70.6926 10.2063 70.4103 10.4483 70.0949 10.771V14.5H69.1929Z" fill="#010101" fill-opacity="0.3"/>
<path d="M26.477 13.632C25.9123 13.632 25.476 13.4707 25.168 13.148C24.8673 12.818 24.717 12.3377 24.717 11.707V6.405H22.814V5.668H25.619V11.773C25.619 12.1617 25.7143 12.444 25.905 12.62C26.103 12.796 26.3597 12.884 26.675 12.884C26.9903 12.884 27.324 12.8033 27.676 12.642L27.907 13.313C27.6577 13.4157 27.4303 13.4927 27.225 13.544C27.0197 13.6027 26.7703 13.632 26.477 13.632ZM32.0937 8.737C31.6537 8.737 31.2614 8.88 30.9167 9.166C30.572 9.44467 30.3594 9.848 30.2787 10.376H33.6887C33.652 9.826 33.4907 9.41533 33.2047 9.144C32.9187 8.87267 32.5484 8.737 32.0937 8.737ZM32.2257 13.632C31.6904 13.632 31.2027 13.522 30.7627 13.302C30.33 13.082 29.9854 12.763 29.7287 12.345C29.472 11.9197 29.3437 11.41 29.3437 10.816C29.3437 10.2367 29.472 9.738 29.7287 9.32C29.9854 8.902 30.319 8.583 30.7297 8.363C31.1477 8.13567 31.595 8.022 32.0717 8.022C32.8417 8.022 33.4394 8.253 33.8647 8.715C34.2974 9.16967 34.5137 9.77467 34.5137 10.53C34.5137 10.6327 34.51 10.7317 34.5027 10.827C34.4954 10.9223 34.4844 11.0067 34.4697 11.08H30.2567C30.3154 11.6813 30.5354 12.136 30.9167 12.444C31.3054 12.752 31.7784 12.906 32.3357 12.906C32.6584 12.906 32.948 12.862 33.2047 12.774C33.4687 12.6787 33.7217 12.554 33.9637 12.4L34.2937 12.994C34.0297 13.17 33.7254 13.3203 33.3807 13.445C33.0434 13.5697 32.6584 13.632 32.2257 13.632ZM38.6674 13.5V8.891H36.1814V8.154H39.5694V13.5H38.6674ZM39.0194 7.032C38.8141 7.032 38.6417 6.96967 38.5024 6.845C38.3631 6.713 38.2934 6.54067 38.2934 6.328C38.2934 6.11533 38.3631 5.94667 38.5024 5.822C38.6417 5.69 38.8141 5.624 39.0194 5.624C39.2247 5.624 39.3971 5.69 39.5364 5.822C39.6757 5.94667 39.7454 6.11533 39.7454 6.328C39.7454 6.54067 39.6757 6.713 39.5364 6.845C39.3971 6.96967 39.2247 7.032 39.0194 7.032ZM46.2641 13.632C45.6994 13.632 45.2631 13.4707 44.9551 13.148C44.6544 12.818 44.5041 12.3377 44.5041 11.707V6.405H42.6011V5.668H45.4061V11.773C45.4061 12.1617 45.5014 12.444 45.6921 12.62C45.8901 12.796 46.1468 12.884 46.4621 12.884C46.7774 12.884 47.1111 12.8033 47.4631 12.642L47.6941 13.313C47.4448 13.4157 47.2174 13.4927 47.0121 13.544C46.8068 13.6027 46.5574 13.632 46.2641 13.632ZM51.0888 13.632C50.7588 13.632 50.4545 13.5733 50.1758 13.456C49.9045 13.3313 49.6845 13.1553 49.5158 12.928C49.3545 12.7007 49.2738 12.4293 49.2738 12.114C49.2738 11.7107 49.4021 11.377 49.6588 11.113C49.9228 10.8417 50.3408 10.6253 50.9128 10.464C51.4848 10.3027 52.2291 10.1853 53.1458 10.112C53.1385 9.87 53.0871 9.65 52.9918 9.452C52.9038 9.24667 52.7571 9.08167 52.5518 8.957C52.3465 8.83233 52.0715 8.77 51.7268 8.77C51.3821 8.77 51.0448 8.83967 50.7148 8.979C50.3921 9.111 50.1061 9.254 49.8568 9.408L49.5048 8.792C49.7761 8.616 50.1208 8.44367 50.5388 8.275C50.9641 8.10633 51.4115 8.022 51.8808 8.022C52.6141 8.022 53.1568 8.22367 53.5088 8.627C53.8681 9.023 54.0478 9.55467 54.0478 10.222V13.5H53.3108L53.2338 12.774H53.2008C52.9075 13.0013 52.5775 13.203 52.2108 13.379C51.8441 13.5477 51.4701 13.632 51.0888 13.632ZM51.3308 12.906C51.6315 12.906 51.9321 12.8363 52.2328 12.697C52.5408 12.5577 52.8451 12.3633 53.1458 12.114V10.706C52.3831 10.7647 51.7818 10.8563 51.3418 10.981C50.9091 11.0983 50.6011 11.2487 50.4178 11.432C50.2418 11.608 50.1538 11.8133 50.1538 12.048C50.1538 12.3487 50.2711 12.5687 50.5058 12.708C50.7478 12.84 51.0228 12.906 51.3308 12.906ZM58.2785 13.632C58.0292 13.632 57.8165 13.5477 57.6405 13.379C57.4718 13.203 57.3875 12.9793 57.3875 12.708C57.3875 12.4293 57.4718 12.2057 57.6405 12.037C57.8165 11.861 58.0292 11.773 58.2785 11.773C58.5278 11.773 58.7368 11.861 58.9055 12.037C59.0815 12.2057 59.1695 12.4293 59.1695 12.708C59.1695 12.9793 59.0815 13.203 58.9055 13.379C58.7368 13.5477 58.5278 13.632 58.2785 13.632ZM62.5092 12.257L62.9382 11.63C63.2169 11.828 63.5249 12.004 63.8622 12.158C64.1996 12.3047 64.5736 12.378 64.9842 12.378C65.4169 12.378 65.7469 12.29 65.9742 12.114C66.2016 11.9307 66.3152 11.6997 66.3152 11.421C66.3152 11.1937 66.2309 11.0067 66.0622 10.86C65.8936 10.706 65.6772 10.5703 65.4132 10.453C65.1492 10.3357 64.8669 10.222 64.5662 10.112C64.2729 9.99467 63.9942 9.86633 63.7302 9.727C63.4662 9.58033 63.2499 9.40067 63.0812 9.188C62.9126 8.968 62.8282 8.70033 62.8282 8.385C62.8282 7.923 62.9896 7.54533 63.3122 7.252C63.6422 6.95133 64.0749 6.77533 64.6102 6.724V5.272H65.2702V6.713C65.6736 6.74233 66.0109 6.83767 66.2822 6.999C66.5536 7.153 66.7992 7.33633 67.0192 7.549L66.5352 8.077C66.2859 7.88633 66.0439 7.736 65.8092 7.626C65.5819 7.50867 65.2849 7.45 64.9182 7.45C64.5516 7.45 64.2582 7.53433 64.0382 7.703C63.8182 7.86433 63.7082 8.08433 63.7082 8.363C63.7082 8.561 63.7926 8.72967 63.9612 8.869C64.1299 9.001 64.3462 9.122 64.6102 9.232C64.8742 9.33467 65.1566 9.44467 65.4572 9.562C65.7579 9.672 66.0402 9.804 66.3042 9.958C66.5682 10.1047 66.7846 10.2917 66.9532 10.519C67.1219 10.739 67.2062 11.0177 67.2062 11.355C67.2062 11.8243 67.0266 12.2203 66.6672 12.543C66.3152 12.8583 65.8496 13.0453 65.2702 13.104V14.71H64.6102V13.115C64.2069 13.0783 63.8182 12.9793 63.4442 12.818C63.0776 12.6567 62.7659 12.4697 62.5092 12.257ZM69.1929 13.5V5.668H70.0949V7.802L70.0399 9.067H70.0729C70.3516 8.76633 70.6486 8.517 70.9639 8.319C71.2866 8.121 71.6569 8.022 72.0749 8.022C72.7056 8.022 73.1713 8.20533 73.4719 8.572C73.7726 8.93867 73.9229 9.474 73.9229 10.178V13.5H73.0209V10.299C73.0209 9.793 72.9256 9.419 72.7349 9.177C72.5443 8.92767 72.2289 8.803 71.7889 8.803C71.4736 8.803 71.1913 8.88367 70.9419 9.045C70.6926 9.20633 70.4103 9.44833 70.0949 9.771V13.5H69.1929Z" fill="white"/>
</g>
<defs>
<linearGradient id="paint0_linear_138_615" x1="4000" y1="0" x2="4000" y2="2000" gradientUnits="userSpaceOnUse">
<stop stop-color="#444D56"/>
<stop offset="1" stop-color="#24292E"/>
</linearGradient>
<clipPath id="clip0_138_615">
<rect width="80" height="20" fill="white"/>
</clipPath>
</defs>
</svg>
