<svg width="126" height="20" viewBox="0 0 126 20" fill="none" xmlns="http://www.w3.org/2000/svg">
<g clip-path="url(#clip0_561_1633)">
<path d="M0 3C0 1.34315 1.34315 0 3 0H123C124.657 0 126 1.34315 126 3V17C126 18.6569 124.657 20 123 20H3C1.34315 20 0 18.6569 0 17V3Z" fill="url(#paint0_linear_561_1633)"/>
<path fill-rule="evenodd" clip-rule="evenodd" d="M11 3C7.132 3 4 6.21127 4 10.1772C3.99932 11.6837 4.46127 13.1521 5.32032 14.3743C6.17938 15.5965 7.39193 16.5104 8.786 16.9863C9.136 17.0498 9.268 16.8345 9.268 16.6458C9.268 16.4756 9.258 15.9097 9.258 15.3088C7.5 15.641 7.045 14.869 6.905 14.466C6.826 14.2589 6.485 13.6222 6.188 13.451C5.943 13.3177 5.593 12.9855 6.178 12.9763C6.73 12.967 7.124 13.4971 7.255 13.7124C7.885 14.7972 8.891 14.4917 9.294 14.304C9.355 13.8375 9.539 13.5238 9.74 13.3444C8.183 13.1649 6.555 12.5456 6.555 9.80088C6.555 9.01959 6.826 8.37365 7.273 7.87125C7.203 7.69182 6.958 6.95667 7.343 5.9693C7.343 5.9693 7.929 5.78167 9.268 6.70547C9.83788 6.54357 10.4266 6.46216 11.018 6.4635C11.6094 6.46216 12.1981 6.54357 12.768 6.70547C14.106 5.77244 14.693 5.9693 14.693 5.9693C15.078 6.95667 14.833 7.69182 14.763 7.87125C15.209 8.37365 15.48 9.01139 15.48 9.80088C15.48 12.5549 13.844 13.1639 12.286 13.3444C12.54 13.5689 12.759 13.9995 12.759 14.6721C12.759 15.6318 12.75 16.4039 12.75 16.6458C12.75 16.8345 12.881 17.058 13.231 16.9863C14.6207 16.5054 15.8282 15.5897 16.6838 14.3683C17.5393 13.1468 17.9996 11.681 18 10.1772C18 6.2123 14.867 3 11 3Z" fill="#959DA5"/>
<path d="M25.751 16.084C25.1717 16.084 24.6363 15.919 24.145 15.589C23.661 15.259 23.2723 14.7713 22.979 14.126C22.6857 13.4807 22.539 12.6887 22.539 11.75C22.539 10.8113 22.682 10.0303 22.968 9.407C23.254 8.77633 23.6427 8.30333 24.134 7.988C24.6253 7.67267 25.1717 7.515 25.773 7.515C26.279 7.515 26.697 7.63233 27.027 7.867C27.357 8.09433 27.6027 8.406 27.764 8.802C27.9253 9.19067 28.006 9.63433 28.006 10.133V13.4H27.456L27.379 12.762H27.335C27.1737 12.9673 26.961 13.147 26.697 13.301C26.4403 13.455 26.169 13.532 25.883 13.532C25.4943 13.532 25.1607 13.4037 24.882 13.147C24.6033 12.8903 24.464 12.5383 24.464 12.091C24.464 11.5263 24.7133 11.101 25.212 10.815C25.718 10.529 26.4367 10.3273 27.368 10.21V10.056C27.368 9.704 27.3093 9.38133 27.192 9.088C27.082 8.79467 26.906 8.56 26.664 8.384C26.4293 8.208 26.1177 8.12 25.729 8.12C25.289 8.12 24.8783 8.25567 24.497 8.527C24.123 8.79833 23.8187 9.20533 23.584 9.748C23.3493 10.2907 23.232 10.969 23.232 11.783C23.232 12.5677 23.342 13.235 23.562 13.785C23.7893 14.335 24.0937 14.753 24.475 15.039C24.8637 15.3323 25.2963 15.479 25.773 15.479C26.103 15.479 26.389 15.435 26.631 15.347C26.8803 15.2663 27.1113 15.1453 27.324 14.984L27.632 15.479C27.346 15.677 27.0527 15.8273 26.752 15.93C26.4513 16.0327 26.1177 16.084 25.751 16.084ZM26.07 12.894C26.4807 12.894 26.8913 12.6593 27.302 12.19V10.804C26.5467 10.9067 26.004 11.0607 25.674 11.266C25.3513 11.464 25.19 11.7317 25.19 12.069C25.19 12.3257 25.267 12.5273 25.421 12.674C25.5823 12.8207 25.7987 12.894 26.07 12.894ZM30.0697 14.5V7.284H30.9717V13.719H34.5467V14.5H30.0697ZM38.6894 9.737C38.2494 9.737 37.8571 9.88 37.5124 10.166C37.1677 10.4447 36.9551 10.848 36.8744 11.376H40.2844C40.2477 10.826 40.0864 10.4153 39.8004 10.144C39.5144 9.87267 39.1441 9.737 38.6894 9.737ZM38.8214 14.632C38.2861 14.632 37.7984 14.522 37.3584 14.302C36.9257 14.082 36.5811 13.763 36.3244 13.345C36.0677 12.9197 35.9394 12.41 35.9394 11.816C35.9394 11.2367 36.0677 10.738 36.3244 10.32C36.5811 9.902 36.9147 9.583 37.3254 9.363C37.7434 9.13567 38.1907 9.022 38.6674 9.022C39.4374 9.022 40.0351 9.253 40.4604 9.715C40.8931 10.1697 41.1094 10.7747 41.1094 11.53C41.1094 11.6327 41.1057 11.7317 41.0984 11.827C41.0911 11.9223 41.0801 12.0067 41.0654 12.08H36.8524C36.9111 12.6813 37.1311 13.136 37.5124 13.444C37.9011 13.752 38.3741 13.906 38.9314 13.906C39.2541 13.906 39.5437 13.862 39.8004 13.774C40.0644 13.6787 40.3174 13.554 40.5594 13.4L40.8894 13.994C40.6254 14.17 40.3211 14.3203 39.9764 14.445C39.6391 14.5697 39.2541 14.632 38.8214 14.632ZM45.2631 14.5V9.891H42.7771V9.154H46.1651V14.5H45.2631ZM45.6151 8.032C45.4098 8.032 45.2374 7.96967 45.0981 7.845C44.9588 7.713 44.8891 7.54067 44.8891 7.328C44.8891 7.11533 44.9588 6.94667 45.0981 6.822C45.2374 6.69 45.4098 6.624 45.6151 6.624C45.8204 6.624 45.9928 6.69 46.1321 6.822C46.2714 6.94667 46.3411 7.11533 46.3411 7.328C46.3411 7.54067 46.2714 7.713 46.1321 7.845C45.9928 7.96967 45.8204 8.032 45.6151 8.032ZM52.8598 14.632C52.2951 14.632 51.8588 14.4707 51.5508 14.148C51.2501 13.818 51.0998 13.3377 51.0998 12.707V7.405H49.1968V6.668H52.0018V12.773C52.0018 13.1617 52.0971 13.444 52.2878 13.62C52.4858 13.796 52.7425 13.884 53.0578 13.884C53.3731 13.884 53.7068 13.8033 54.0588 13.642L54.2898 14.313C54.0405 14.4157 53.8131 14.4927 53.6078 14.544C53.4025 14.6027 53.1531 14.632 52.8598 14.632ZM57.6845 14.632C57.3545 14.632 57.0502 14.5733 56.7715 14.456C56.5002 14.3313 56.2802 14.1553 56.1115 13.928C55.9502 13.7007 55.8695 13.4293 55.8695 13.114C55.8695 12.7107 55.9978 12.377 56.2545 12.113C56.5185 11.8417 56.9365 11.6253 57.5085 11.464C58.0805 11.3027 58.8248 11.1853 59.7415 11.112C59.7342 10.87 59.6828 10.65 59.5875 10.452C59.4995 10.2467 59.3528 10.0817 59.1475 9.957C58.9422 9.83233 58.6672 9.77 58.3225 9.77C57.9778 9.77 57.6405 9.83967 57.3105 9.979C56.9878 10.111 56.7018 10.254 56.4525 10.408L56.1005 9.792C56.3718 9.616 56.7165 9.44367 57.1345 9.275C57.5598 9.10633 58.0072 9.022 58.4765 9.022C59.2098 9.022 59.7525 9.22367 60.1045 9.627C60.4638 10.023 60.6435 10.5547 60.6435 11.222V14.5H59.9065L59.8295 13.774H59.7965C59.5032 14.0013 59.1732 14.203 58.8065 14.379C58.4398 14.5477 58.0658 14.632 57.6845 14.632ZM57.9265 13.906C58.2272 13.906 58.5278 13.8363 58.8285 13.697C59.1365 13.5577 59.4408 13.3633 59.7415 13.114V11.706C58.9788 11.7647 58.3775 11.8563 57.9375 11.981C57.5048 12.0983 57.1968 12.2487 57.0135 12.432C56.8375 12.608 56.7495 12.8133 56.7495 13.048C56.7495 13.3487 56.8668 13.5687 57.1015 13.708C57.3435 13.84 57.6185 13.906 57.9265 13.906ZM64.9292 14.632C64.4012 14.632 63.9136 14.5367 63.4662 14.346C63.0189 14.148 62.6339 13.8877 62.3112 13.565L62.8612 12.927C63.1326 13.1983 63.4479 13.4183 63.8072 13.587C64.1739 13.7483 64.5626 13.829 64.9732 13.829C65.4719 13.829 65.8569 13.7227 66.1282 13.51C66.4069 13.2973 66.5462 13.0223 66.5462 12.685C66.5462 12.4283 66.4876 12.223 66.3702 12.069C66.2602 11.915 66.1062 11.7867 65.9082 11.684C65.7176 11.5813 65.4976 11.4787 65.2482 11.376L64.2142 10.925C63.9722 10.8297 63.7302 10.705 63.4882 10.551C63.2536 10.397 63.0556 10.199 62.8942 9.957C62.7329 9.715 62.6522 9.418 62.6522 9.066C62.6522 8.69933 62.7512 8.373 62.9492 8.087C63.1546 7.79367 63.4332 7.56633 63.7852 7.405C64.1446 7.23633 64.5552 7.152 65.0172 7.152C65.4719 7.152 65.8899 7.23633 66.2712 7.405C66.6526 7.56633 66.9752 7.779 67.2392 8.043L66.7552 8.637C66.5206 8.42433 66.2602 8.25933 65.9742 8.142C65.6882 8.01733 65.3582 7.955 64.9842 7.955C64.5662 7.955 64.2289 8.05033 63.9722 8.241C63.7156 8.43167 63.5872 8.68833 63.5872 9.011C63.5872 9.23833 63.6496 9.42533 63.7742 9.572C63.9062 9.71867 64.0712 9.83967 64.2692 9.935C64.4672 10.0303 64.6689 10.122 64.8742 10.21L65.8862 10.65C66.1869 10.7673 66.4546 10.9103 66.6892 11.079C66.9312 11.2403 67.1219 11.442 67.2612 11.684C67.4079 11.9187 67.4812 12.2157 67.4812 12.575C67.4812 12.9563 67.3786 13.3047 67.1732 13.62C66.9679 13.928 66.6746 14.1737 66.2932 14.357C65.9119 14.5403 65.4572 14.632 64.9292 14.632ZM69.1929 14.5V6.668H70.0949V8.802L70.0399 10.067H70.0729C70.3516 9.76633 70.6486 9.517 70.9639 9.319C71.2866 9.121 71.6569 9.022 72.0749 9.022C72.7056 9.022 73.1713 9.20533 73.4719 9.572C73.7726 9.93867 73.9229 10.474 73.9229 11.178V14.5H73.0209V11.299C73.0209 10.793 72.9256 10.419 72.7349 10.177C72.5443 9.92767 72.2289 9.803 71.7889 9.803C71.4736 9.803 71.1913 9.88367 70.9419 10.045C70.6926 10.2063 70.4103 10.4483 70.0949 10.771V14.5H69.1929ZM78.2636 9.737C77.8236 9.737 77.4313 9.88 77.0866 10.166C76.742 10.4447 76.5293 10.848 76.4486 11.376H79.8586C79.822 10.826 79.6606 10.4153 79.3746 10.144C79.0886 9.87267 78.7183 9.737 78.2636 9.737ZM78.3956 14.632C77.8603 14.632 77.3726 14.522 76.9326 14.302C76.5 14.082 76.1553 13.763 75.8986 13.345C75.642 12.9197 75.5136 12.41 75.5136 11.816C75.5136 11.2367 75.642 10.738 75.8986 10.32C76.1553 9.902 76.489 9.583 76.8996 9.363C77.3176 9.13567 77.765 9.022 78.2416 9.022C79.0116 9.022 79.6093 9.253 80.0346 9.715C80.4673 10.1697 80.6836 10.7747 80.6836 11.53C80.6836 11.6327 80.68 11.7317 80.6726 11.827C80.6653 11.9223 80.6543 12.0067 80.6396 12.08H76.4266C76.4853 12.6813 76.7053 13.136 77.0866 13.444C77.4753 13.752 77.9483 13.906 78.5056 13.906C78.8283 13.906 79.118 13.862 79.3746 13.774C79.6386 13.6787 79.8916 13.554 80.1336 13.4L80.4636 13.994C80.1996 14.17 79.8953 14.3203 79.5506 14.445C79.2133 14.5697 78.8283 14.632 78.3956 14.632ZM85.8383 14.632C85.2737 14.632 84.8373 14.4707 84.5293 14.148C84.2287 13.818 84.0783 13.3377 84.0783 12.707V7.405H82.1753V6.668H84.9803V12.773C84.9803 13.1617 85.0757 13.444 85.2663 13.62C85.4643 13.796 85.721 13.884 86.0363 13.884C86.3517 13.884 86.6853 13.8033 87.0373 13.642L87.2683 14.313C87.019 14.4157 86.7917 14.4927 86.5863 14.544C86.381 14.6027 86.1317 14.632 85.8383 14.632ZM92.434 14.632C91.8694 14.632 91.433 14.4707 91.125 14.148C90.8244 13.818 90.674 13.3377 90.674 12.707V7.405H88.771V6.668H91.576V12.773C91.576 13.1617 91.6714 13.444 91.862 13.62C92.06 13.796 92.3167 13.884 92.632 13.884C92.9474 13.884 93.281 13.8033 93.633 13.642L93.864 14.313C93.6147 14.4157 93.3874 14.4927 93.182 14.544C92.9767 14.6027 92.7274 14.632 92.434 14.632ZM95.6527 14.5V7.284H97.8967C98.3881 7.284 98.8207 7.35 99.1947 7.482C99.5761 7.60667 99.8731 7.81933 100.086 8.12C100.306 8.41333 100.416 8.80933 100.416 9.308C100.416 9.86533 100.269 10.3163 99.9757 10.661C99.6824 10.9983 99.2901 11.2293 98.7987 11.354L100.636 14.5H99.5907L97.8527 11.453H96.5657V14.5H95.6527ZM96.5657 10.705H97.7647C98.3294 10.705 98.7584 10.5913 99.0517 10.364C99.3524 10.1293 99.5027 9.77733 99.5027 9.308C99.5027 8.83133 99.3524 8.49767 99.0517 8.307C98.7584 8.11633 98.3294 8.021 97.7647 8.021H96.5657V10.705ZM104.448 14.632C103.979 14.632 103.543 14.522 103.139 14.302C102.743 14.082 102.421 13.763 102.171 13.345C101.929 12.927 101.808 12.4247 101.808 11.838C101.808 11.2367 101.929 10.727 102.171 10.309C102.421 9.891 102.743 9.572 103.139 9.352C103.543 9.132 103.979 9.022 104.448 9.022C104.918 9.022 105.35 9.132 105.746 9.352C106.15 9.572 106.472 9.891 106.714 10.309C106.964 10.727 107.088 11.2367 107.088 11.838C107.088 12.4247 106.964 12.927 106.714 13.345C106.472 13.763 106.15 14.082 105.746 14.302C105.35 14.522 104.918 14.632 104.448 14.632ZM104.448 13.884C104.962 13.884 105.372 13.697 105.68 13.323C105.996 12.9417 106.153 12.4467 106.153 11.838C106.153 11.222 105.996 10.7233 105.68 10.342C105.372 9.96067 104.962 9.77 104.448 9.77C103.935 9.77 103.521 9.96067 103.205 10.342C102.897 10.7233 102.743 11.222 102.743 11.838C102.743 12.4467 102.897 12.9417 103.205 13.323C103.521 13.697 103.935 13.884 104.448 13.884ZM111.044 14.632C110.575 14.632 110.138 14.522 109.735 14.302C109.339 14.082 109.016 13.763 108.767 13.345C108.525 12.927 108.404 12.4247 108.404 11.838C108.404 11.2367 108.525 10.727 108.767 10.309C109.016 9.891 109.339 9.572 109.735 9.352C110.138 9.132 110.575 9.022 111.044 9.022C111.513 9.022 111.946 9.132 112.342 9.352C112.745 9.572 113.068 9.891 113.31 10.309C113.559 10.727 113.684 11.2367 113.684 11.838C113.684 12.4247 113.559 12.927 113.31 13.345C113.068 13.763 112.745 14.082 112.342 14.302C111.946 14.522 111.513 14.632 111.044 14.632ZM111.044 13.884C111.557 13.884 111.968 13.697 112.276 13.323C112.591 12.9417 112.749 12.4467 112.749 11.838C112.749 11.222 112.591 10.7233 112.276 10.342C111.968 9.96067 111.557 9.77 111.044 9.77C110.531 9.77 110.116 9.96067 109.801 10.342C109.493 10.7233 109.339 11.222 109.339 11.838C109.339 12.4467 109.493 12.9417 109.801 13.323C110.116 13.697 110.531 13.884 111.044 13.884ZM118.674 14.632C118.153 14.632 117.743 14.5403 117.442 14.357C117.141 14.1663 116.925 13.906 116.793 13.576C116.668 13.246 116.606 12.861 116.606 12.421V9.891H115.099V9.209L116.639 9.154L116.76 7.438H117.508V9.154H120.137V9.891H117.508V12.432C117.508 12.9087 117.603 13.2717 117.794 13.521C117.992 13.7703 118.348 13.895 118.861 13.895C119.118 13.895 119.349 13.873 119.554 13.829C119.759 13.785 119.957 13.7263 120.148 13.653L120.346 14.313C120.104 14.401 119.847 14.4743 119.576 14.533C119.312 14.599 119.011 14.632 118.674 14.632Z" fill="#010101" fill-opacity="0.3"/>
<path d="M25.751 15.084C25.1717 15.084 24.6363 14.919 24.145 14.589C23.661 14.259 23.2723 13.7713 22.979 13.126C22.6857 12.4807 22.539 11.6887 22.539 10.75C22.539 9.81133 22.682 9.03033 22.968 8.407C23.254 7.77633 23.6427 7.30333 24.134 6.988C24.6253 6.67267 25.1717 6.515 25.773 6.515C26.279 6.515 26.697 6.63233 27.027 6.867C27.357 7.09433 27.6027 7.406 27.764 7.802C27.9253 8.19067 28.006 8.63433 28.006 9.133V12.4H27.456L27.379 11.762H27.335C27.1737 11.9673 26.961 12.147 26.697 12.301C26.4403 12.455 26.169 12.532 25.883 12.532C25.4943 12.532 25.1607 12.4037 24.882 12.147C24.6033 11.8903 24.464 11.5383 24.464 11.091C24.464 10.5263 24.7133 10.101 25.212 9.815C25.718 9.529 26.4367 9.32733 27.368 9.21V9.056C27.368 8.704 27.3093 8.38133 27.192 8.088C27.082 7.79467 26.906 7.56 26.664 7.384C26.4293 7.208 26.1177 7.12 25.729 7.12C25.289 7.12 24.8783 7.25567 24.497 7.527C24.123 7.79833 23.8187 8.20533 23.584 8.748C23.3493 9.29067 23.232 9.969 23.232 10.783C23.232 11.5677 23.342 12.235 23.562 12.785C23.7893 13.335 24.0937 13.753 24.475 14.039C24.8637 14.3323 25.2963 14.479 25.773 14.479C26.103 14.479 26.389 14.435 26.631 14.347C26.8803 14.2663 27.1113 14.1453 27.324 13.984L27.632 14.479C27.346 14.677 27.0527 14.8273 26.752 14.93C26.4513 15.0327 26.1177 15.084 25.751 15.084ZM26.07 11.894C26.4807 11.894 26.8913 11.6593 27.302 11.19V9.804C26.5467 9.90667 26.004 10.0607 25.674 10.266C25.3513 10.464 25.19 10.7317 25.19 11.069C25.19 11.3257 25.267 11.5273 25.421 11.674C25.5823 11.8207 25.7987 11.894 26.07 11.894ZM30.0697 13.5V6.284H30.9717V12.719H34.5467V13.5H30.0697ZM38.6894 8.737C38.2494 8.737 37.8571 8.88 37.5124 9.166C37.1677 9.44467 36.9551 9.848 36.8744 10.376H40.2844C40.2477 9.826 40.0864 9.41533 39.8004 9.144C39.5144 8.87267 39.1441 8.737 38.6894 8.737ZM38.8214 13.632C38.2861 13.632 37.7984 13.522 37.3584 13.302C36.9257 13.082 36.5811 12.763 36.3244 12.345C36.0677 11.9197 35.9394 11.41 35.9394 10.816C35.9394 10.2367 36.0677 9.738 36.3244 9.32C36.5811 8.902 36.9147 8.583 37.3254 8.363C37.7434 8.13567 38.1907 8.022 38.6674 8.022C39.4374 8.022 40.0351 8.253 40.4604 8.715C40.8931 9.16967 41.1094 9.77467 41.1094 10.53C41.1094 10.6327 41.1057 10.7317 41.0984 10.827C41.0911 10.9223 41.0801 11.0067 41.0654 11.08H36.8524C36.9111 11.6813 37.1311 12.136 37.5124 12.444C37.9011 12.752 38.3741 12.906 38.9314 12.906C39.2541 12.906 39.5437 12.862 39.8004 12.774C40.0644 12.6787 40.3174 12.554 40.5594 12.4L40.8894 12.994C40.6254 13.17 40.3211 13.3203 39.9764 13.445C39.6391 13.5697 39.2541 13.632 38.8214 13.632ZM45.2631 13.5V8.891H42.7771V8.154H46.1651V13.5H45.2631ZM45.6151 7.032C45.4098 7.032 45.2374 6.96967 45.0981 6.845C44.9588 6.713 44.8891 6.54067 44.8891 6.328C44.8891 6.11533 44.9588 5.94667 45.0981 5.822C45.2374 5.69 45.4098 5.624 45.6151 5.624C45.8204 5.624 45.9928 5.69 46.1321 5.822C46.2714 5.94667 46.3411 6.11533 46.3411 6.328C46.3411 6.54067 46.2714 6.713 46.1321 6.845C45.9928 6.96967 45.8204 7.032 45.6151 7.032ZM52.8598 13.632C52.2951 13.632 51.8588 13.4707 51.5508 13.148C51.2501 12.818 51.0998 12.3377 51.0998 11.707V6.405H49.1968V5.668H52.0018V11.773C52.0018 12.1617 52.0971 12.444 52.2878 12.62C52.4858 12.796 52.7425 12.884 53.0578 12.884C53.3731 12.884 53.7068 12.8033 54.0588 12.642L54.2898 13.313C54.0405 13.4157 53.8131 13.4927 53.6078 13.544C53.4025 13.6027 53.1531 13.632 52.8598 13.632ZM57.6845 13.632C57.3545 13.632 57.0502 13.5733 56.7715 13.456C56.5002 13.3313 56.2802 13.1553 56.1115 12.928C55.9502 12.7007 55.8695 12.4293 55.8695 12.114C55.8695 11.7107 55.9978 11.377 56.2545 11.113C56.5185 10.8417 56.9365 10.6253 57.5085 10.464C58.0805 10.3027 58.8248 10.1853 59.7415 10.112C59.7342 9.87 59.6828 9.65 59.5875 9.452C59.4995 9.24667 59.3528 9.08167 59.1475 8.957C58.9422 8.83233 58.6672 8.77 58.3225 8.77C57.9778 8.77 57.6405 8.83967 57.3105 8.979C56.9878 9.111 56.7018 9.254 56.4525 9.408L56.1005 8.792C56.3718 8.616 56.7165 8.44367 57.1345 8.275C57.5598 8.10633 58.0072 8.022 58.4765 8.022C59.2098 8.022 59.7525 8.22367 60.1045 8.627C60.4638 9.023 60.6435 9.55467 60.6435 10.222V13.5H59.9065L59.8295 12.774H59.7965C59.5032 13.0013 59.1732 13.203 58.8065 13.379C58.4398 13.5477 58.0658 13.632 57.6845 13.632ZM57.9265 12.906C58.2272 12.906 58.5278 12.8363 58.8285 12.697C59.1365 12.5577 59.4408 12.3633 59.7415 12.114V10.706C58.9788 10.7647 58.3775 10.8563 57.9375 10.981C57.5048 11.0983 57.1968 11.2487 57.0135 11.432C56.8375 11.608 56.7495 11.8133 56.7495 12.048C56.7495 12.3487 56.8668 12.5687 57.1015 12.708C57.3435 12.84 57.6185 12.906 57.9265 12.906ZM64.9292 13.632C64.4012 13.632 63.9136 13.5367 63.4662 13.346C63.0189 13.148 62.6339 12.8877 62.3112 12.565L62.8612 11.927C63.1326 12.1983 63.4479 12.4183 63.8072 12.587C64.1739 12.7483 64.5626 12.829 64.9732 12.829C65.4719 12.829 65.8569 12.7227 66.1282 12.51C66.4069 12.2973 66.5462 12.0223 66.5462 11.685C66.5462 11.4283 66.4876 11.223 66.3702 11.069C66.2602 10.915 66.1062 10.7867 65.9082 10.684C65.7176 10.5813 65.4976 10.4787 65.2482 10.376L64.2142 9.925C63.9722 9.82967 63.7302 9.705 63.4882 9.551C63.2536 9.397 63.0556 9.199 62.8942 8.957C62.7329 8.715 62.6522 8.418 62.6522 8.066C62.6522 7.69933 62.7512 7.373 62.9492 7.087C63.1546 6.79367 63.4332 6.56633 63.7852 6.405C64.1446 6.23633 64.5552 6.152 65.0172 6.152C65.4719 6.152 65.8899 6.23633 66.2712 6.405C66.6526 6.56633 66.9752 6.779 67.2392 7.043L66.7552 7.637C66.5206 7.42433 66.2602 7.25933 65.9742 7.142C65.6882 7.01733 65.3582 6.955 64.9842 6.955C64.5662 6.955 64.2289 7.05033 63.9722 7.241C63.7156 7.43167 63.5872 7.68833 63.5872 8.011C63.5872 8.23833 63.6496 8.42533 63.7742 8.572C63.9062 8.71867 64.0712 8.83967 64.2692 8.935C64.4672 9.03033 64.6689 9.122 64.8742 9.21L65.8862 9.65C66.1869 9.76733 66.4546 9.91033 66.6892 10.079C66.9312 10.2403 67.1219 10.442 67.2612 10.684C67.4079 10.9187 67.4812 11.2157 67.4812 11.575C67.4812 11.9563 67.3786 12.3047 67.1732 12.62C66.9679 12.928 66.6746 13.1737 66.2932 13.357C65.9119 13.5403 65.4572 13.632 64.9292 13.632ZM69.1929 13.5V5.668H70.0949V7.802L70.0399 9.067H70.0729C70.3516 8.76633 70.6486 8.517 70.9639 8.319C71.2866 8.121 71.6569 8.022 72.0749 8.022C72.7056 8.022 73.1713 8.20533 73.4719 8.572C73.7726 8.93867 73.9229 9.474 73.9229 10.178V13.5H73.0209V10.299C73.0209 9.793 72.9256 9.419 72.7349 9.177C72.5443 8.92767 72.2289 8.803 71.7889 8.803C71.4736 8.803 71.1913 8.88367 70.9419 9.045C70.6926 9.20633 70.4103 9.44833 70.0949 9.771V13.5H69.1929ZM78.2636 8.737C77.8236 8.737 77.4313 8.88 77.0866 9.166C76.742 9.44467 76.5293 9.848 76.4486 10.376H79.8586C79.822 9.826 79.6606 9.41533 79.3746 9.144C79.0886 8.87267 78.7183 8.737 78.2636 8.737ZM78.3956 13.632C77.8603 13.632 77.3726 13.522 76.9326 13.302C76.5 13.082 76.1553 12.763 75.8986 12.345C75.642 11.9197 75.5136 11.41 75.5136 10.816C75.5136 10.2367 75.642 9.738 75.8986 9.32C76.1553 8.902 76.489 8.583 76.8996 8.363C77.3176 8.13567 77.765 8.022 78.2416 8.022C79.0116 8.022 79.6093 8.253 80.0346 8.715C80.4673 9.16967 80.6836 9.77467 80.6836 10.53C80.6836 10.6327 80.68 10.7317 80.6726 10.827C80.6653 10.9223 80.6543 11.0067 80.6396 11.08H76.4266C76.4853 11.6813 76.7053 12.136 77.0866 12.444C77.4753 12.752 77.9483 12.906 78.5056 12.906C78.8283 12.906 79.118 12.862 79.3746 12.774C79.6386 12.6787 79.8916 12.554 80.1336 12.4L80.4636 12.994C80.1996 13.17 79.8953 13.3203 79.5506 13.445C79.2133 13.5697 78.8283 13.632 78.3956 13.632ZM85.8383 13.632C85.2737 13.632 84.8373 13.4707 84.5293 13.148C84.2287 12.818 84.0783 12.3377 84.0783 11.707V6.405H82.1753V5.668H84.9803V11.773C84.9803 12.1617 85.0757 12.444 85.2663 12.62C85.4643 12.796 85.721 12.884 86.0363 12.884C86.3517 12.884 86.6853 12.8033 87.0373 12.642L87.2683 13.313C87.019 13.4157 86.7917 13.4927 86.5863 13.544C86.381 13.6027 86.1317 13.632 85.8383 13.632ZM92.434 13.632C91.8694 13.632 91.433 13.4707 91.125 13.148C90.8244 12.818 90.674 12.3377 90.674 11.707V6.405H88.771V5.668H91.576V11.773C91.576 12.1617 91.6714 12.444 91.862 12.62C92.06 12.796 92.3167 12.884 92.632 12.884C92.9474 12.884 93.281 12.8033 93.633 12.642L93.864 13.313C93.6147 13.4157 93.3874 13.4927 93.182 13.544C92.9767 13.6027 92.7274 13.632 92.434 13.632ZM95.6527 13.5V6.284H97.8967C98.3881 6.284 98.8207 6.35 99.1947 6.482C99.5761 6.60667 99.8731 6.81933 100.086 7.12C100.306 7.41333 100.416 7.80933 100.416 8.308C100.416 8.86533 100.269 9.31633 99.9757 9.661C99.6824 9.99833 99.2901 10.2293 98.7987 10.354L100.636 13.5H99.5907L97.8527 10.453H96.5657V13.5H95.6527ZM96.5657 9.705H97.7647C98.3294 9.705 98.7584 9.59133 99.0517 9.364C99.3524 9.12933 99.5027 8.77733 99.5027 8.308C99.5027 7.83133 99.3524 7.49767 99.0517 7.307C98.7584 7.11633 98.3294 7.021 97.7647 7.021H96.5657V9.705ZM104.448 13.632C103.979 13.632 103.543 13.522 103.139 13.302C102.743 13.082 102.421 12.763 102.171 12.345C101.929 11.927 101.808 11.4247 101.808 10.838C101.808 10.2367 101.929 9.727 102.171 9.309C102.421 8.891 102.743 8.572 103.139 8.352C103.543 8.132 103.979 8.022 104.448 8.022C104.918 8.022 105.35 8.132 105.746 8.352C106.15 8.572 106.472 8.891 106.714 9.309C106.964 9.727 107.088 10.2367 107.088 10.838C107.088 11.4247 106.964 11.927 106.714 12.345C106.472 12.763 106.15 13.082 105.746 13.302C105.35 13.522 104.918 13.632 104.448 13.632ZM104.448 12.884C104.962 12.884 105.372 12.697 105.68 12.323C105.996 11.9417 106.153 11.4467 106.153 10.838C106.153 10.222 105.996 9.72333 105.68 9.342C105.372 8.96067 104.962 8.77 104.448 8.77C103.935 8.77 103.521 8.96067 103.205 9.342C102.897 9.72333 102.743 10.222 102.743 10.838C102.743 11.4467 102.897 11.9417 103.205 12.323C103.521 12.697 103.935 12.884 104.448 12.884ZM111.044 13.632C110.575 13.632 110.138 13.522 109.735 13.302C109.339 13.082 109.016 12.763 108.767 12.345C108.525 11.927 108.404 11.4247 108.404 10.838C108.404 10.2367 108.525 9.727 108.767 9.309C109.016 8.891 109.339 8.572 109.735 8.352C110.138 8.132 110.575 8.022 111.044 8.022C111.513 8.022 111.946 8.132 112.342 8.352C112.745 8.572 113.068 8.891 113.31 9.309C113.559 9.727 113.684 10.2367 113.684 10.838C113.684 11.4247 113.559 11.927 113.31 12.345C113.068 12.763 112.745 13.082 112.342 13.302C111.946 13.522 111.513 13.632 111.044 13.632ZM111.044 12.884C111.557 12.884 111.968 12.697 112.276 12.323C112.591 11.9417 112.749 11.4467 112.749 10.838C112.749 10.222 112.591 9.72333 112.276 9.342C111.968 8.96067 111.557 8.77 111.044 8.77C110.531 8.77 110.116 8.96067 109.801 9.342C109.493 9.72333 109.339 10.222 109.339 10.838C109.339 11.4467 109.493 11.9417 109.801 12.323C110.116 12.697 110.531 12.884 111.044 12.884ZM118.674 13.632C118.153 13.632 117.743 13.5403 117.442 13.357C117.141 13.1663 116.925 12.906 116.793 12.576C116.668 12.246 116.606 11.861 116.606 11.421V8.891H115.099V8.209L116.639 8.154L116.76 6.438H117.508V8.154H120.137V8.891H117.508V11.432C117.508 11.9087 117.603 12.2717 117.794 12.521C117.992 12.7703 118.348 12.895 118.861 12.895C119.118 12.895 119.349 12.873 119.554 12.829C119.759 12.785 119.957 12.7263 120.148 12.653L120.346 13.313C120.104 13.401 119.847 13.4743 119.576 13.533C119.312 13.599 119.011 13.632 118.674 13.632Z" fill="white"/>
</g>
<defs>
<linearGradient id="paint0_linear_561_1633" x1="6300" y1="0" x2="6300" y2="2000" gradientUnits="userSpaceOnUse">
<stop stop-color="#444D56"/>
<stop offset="1" stop-color="#24292E"/>
</linearGradient>
<clipPath id="clip0_561_1633">
<rect width="126" height="20" fill="white"/>
</clipPath>
</defs>
</svg>
